<svg id="Layer_1" data-name="Layer 1" xmlns="http://www.w3.org/2000/svg" viewBox="0 0 71.56 48.81"><defs><style>.cls-1{fill:#010101;}</style></defs><title>ecp</title><path class="cls-1" d="M18.33,12.95V61.73H67.59v-4h0V41.3h2.54c5.09,0,7.67-2.67,7.67-7.94v-3.7c0-5.25-2.56-8-7.41-8H63.15V57.73H22.33V16.95H85.89V57.75H73v4H89.89V12.95ZM67.59,25.77h2.8c2.15,0,3,1.08,3,3.72v4.09c0,2.58-1,3.64-3.28,3.64H67.59Z" transform="translate(-18.33 -12.95)"/><polygon class="cls-1" points="25.93 12.82 25.93 8.7 12.26 8.7 12.26 40.5 25.93 40.5 25.93 36.38 16.69 36.38 16.69 26.42 24.22 26.42 24.22 22.34 16.69 22.34 16.69 12.82 25.93 12.82"/><path class="cls-1" d="M61,32.85V29.58c0-5.24-2.72-8.24-7.45-8.24s-7.41,3-7.41,8.24V45.51c0,5.24,2.7,8.24,7.41,8.24s7.45-3,7.45-8.24V41.18H56.77v4.5c0,2.65-1,3.94-3.11,3.94s-3.11-1.33-3.11-3.94V29.41c0-2.62,1-3.94,3.11-3.94s3.11,1.29,3.11,3.94v3.45Z" transform="translate(-18.33 -12.95)"/></svg>